<svg width="45.833344" height="45.467224" viewBox="0 0 45.8333 45.4672" fill="none" xmlns="http://www.w3.org/2000/svg" xmlns:xlink="http://www.w3.org/1999/xlink">
	<desc>
			Created with Pixso.
	</desc>
	<defs/>
	<path id="Vector" d="M22.91 12.4C20.15 12.4 17.5 13.48 15.55 15.42C13.59 17.36 12.49 19.99 12.49 22.73C12.49 25.47 13.59 28.1 15.55 30.04C17.5 31.97 20.15 33.06 22.91 33.06C25.67 33.06 28.32 31.97 30.28 30.04C32.23 28.1 33.33 25.47 33.33 22.73C33.33 19.99 32.23 17.36 30.28 15.42C28.32 13.48 25.67 12.4 22.91 12.4ZM16.66 22.73C16.66 24.37 17.32 25.95 18.49 27.11C19.66 28.28 21.25 28.93 22.91 28.93C24.57 28.93 26.16 28.28 27.33 27.11C28.5 25.95 29.16 24.37 29.16 22.73C29.16 21.08 28.5 19.51 27.33 18.34C26.16 17.18 24.57 16.53 22.91 16.53C21.25 16.53 19.66 17.18 18.49 18.34C17.32 19.51 16.66 21.08 16.66 22.73Z" fill="#4694DC" fill-opacity="1.000000" fill-rule="evenodd"/>
	<path id="Vector" d="M35.41 8.26C34.86 8.26 34.33 8.48 33.94 8.87C33.55 9.25 33.33 9.78 33.33 10.33C33.33 10.88 33.55 11.4 33.94 11.79C34.33 12.18 34.86 12.4 35.41 12.4C35.96 12.4 36.49 12.18 36.88 11.79C37.28 11.4 37.49 10.88 37.49 10.33C37.49 9.78 37.28 9.25 36.88 8.87C36.49 8.48 35.96 8.26 35.41 8.26Z" fill="#4694DC" fill-opacity="1.000000" fill-rule="nonzero"/>
	<path id="Vector" d="M8.33 0C6.12 0 4 0.87 2.44 2.42C0.87 3.97 0 6.07 0 8.26L0 37.2C0 39.39 0.87 41.49 2.44 43.04C4 44.59 6.12 45.46 8.33 45.46L37.5 45.46C39.71 45.46 41.82 44.59 43.39 43.04C44.95 41.49 45.83 39.39 45.83 37.2L45.83 8.26C45.83 6.07 44.95 3.97 43.39 2.42C41.82 0.87 39.71 0 37.5 0L8.33 0ZM37.5 4.13L8.33 4.13C7.22 4.13 6.16 4.56 5.38 5.34C4.6 6.11 4.16 7.17 4.16 8.26L4.16 37.2C4.16 38.29 4.6 39.34 5.38 40.12C6.16 40.89 7.22 41.33 8.33 41.33L37.5 41.33C38.6 41.33 39.66 40.89 40.44 40.12C41.22 39.34 41.66 38.29 41.66 37.2L41.66 8.26C41.66 7.17 41.22 6.11 40.44 5.34C39.66 4.56 38.6 4.13 37.5 4.13Z" fill="#4694DC" fill-opacity="1.000000" fill-rule="evenodd"/>
</svg>
