<svg width="41.281799" height="35.909271" viewBox="0 0 41.2818 35.9093" fill="none" xmlns="http://www.w3.org/2000/svg" xmlns:xlink="http://www.w3.org/1999/xlink">
	<desc>
			Created with Pixso.
	</desc>
	<defs/>
	<path id="Vector" d="M30.5 0L0 0L0 5.04L30.5 5.04L30.5 0Z" fill="#4694DC" fill-opacity="1.000000" fill-rule="nonzero"/>
	<path id="Vector" d="M30.5 10.08L0 10.08L0 15.12L30.5 15.12L30.5 10.08Z" fill="#4694DC" fill-opacity="1.000000" fill-rule="nonzero"/>
	<path id="Vector" d="M0 20.17L20.33 20.17L20.33 25.21L0 25.21L0 20.17Z" fill="#4694DC" fill-opacity="1.000000" fill-rule="nonzero"/>
	<path id="Vector" d="M25.1 19.86C23.83 21.12 23.04 22.79 22.89 24.57C22.73 26.35 23.22 28.12 24.26 29.58C25.3 31.04 26.82 32.09 28.57 32.54C30.31 32.99 32.16 32.81 33.78 32.04L37.68 35.9L41.28 32.34L37.38 28.47C38.15 26.86 38.32 25.03 37.87 23.3C37.42 21.58 36.36 20.07 34.89 19.04C33.43 18.01 31.64 17.52 29.85 17.67C28.05 17.83 26.37 18.6 25.1 19.86ZM28.7 26.99C28.93 27.23 29.21 27.41 29.52 27.54C29.83 27.66 30.16 27.73 30.5 27.73C30.83 27.73 31.16 27.66 31.47 27.54C31.78 27.41 32.06 27.22 32.29 26.99C32.53 26.76 32.72 26.48 32.84 26.17C32.97 25.87 33.04 25.54 33.04 25.21C33.04 24.88 32.97 24.55 32.84 24.24C32.72 23.94 32.53 23.66 32.29 23.42C31.82 22.95 31.17 22.69 30.49 22.69C29.82 22.69 29.17 22.95 28.7 23.42C28.22 23.9 27.95 24.54 27.95 25.21C27.95 25.88 28.22 26.52 28.7 26.99Z" fill="#4694DC" fill-opacity="1.000000" fill-rule="evenodd"/>
</svg>
