<svg width="41.943569" height="41.565857" viewBox="0 0 41.9436 41.5659" fill="none" xmlns="http://www.w3.org/2000/svg" xmlns:xlink="http://www.w3.org/1999/xlink">
	<desc>
			Created with Pixso.
	</desc>
	<defs/>
	<path id="Vector" d="M38.52 0.58C38.34 0.39 38.12 0.25 37.87 0.15C37.63 0.05 37.37 0 37.11 0C36.85 0 36.58 0.05 36.34 0.15C36.1 0.25 35.88 0.39 35.69 0.58L33.95 2.31C32.83 1.78 31.57 1.6 30.35 1.81C29.12 2.02 28 2.6 27.12 3.47L5.9 24.51L17.22 35.74L38.43 14.69C40.28 12.86 40.67 10.13 39.61 7.92L41.35 6.19C41.73 5.82 41.94 5.31 41.94 4.79C41.94 4.26 41.73 3.75 41.35 3.38L38.52 0.58ZM29.99 17.46L17.22 30.13L11.56 24.51L24.33 11.85L29.99 17.46L29.99 17.46ZM33.62 13.85L35.6 11.89C35.79 11.71 35.94 11.49 36.04 11.25C36.14 11.01 36.19 10.75 36.19 10.49C36.19 10.23 36.14 9.97 36.04 9.73C35.94 9.49 35.79 9.27 35.6 9.08L32.78 6.28C32.59 6.09 32.37 5.95 32.13 5.85C31.89 5.75 31.62 5.7 31.36 5.7C31.1 5.7 30.84 5.75 30.6 5.85C30.35 5.95 30.13 6.09 29.95 6.28L27.97 8.24L33.62 13.86L33.62 13.85Z" fill="#4694DC" fill-opacity="1.000000" fill-rule="evenodd"/>
	<path id="Vector" d="M0 41.56L4.24 26.13L15.55 37.35L0 41.56Z" fill="#4694DC" fill-opacity="1.000000" fill-rule="nonzero"/>
</svg>
